<svg width="456" height="183" viewBox="0 0 456 183" fill="none" xmlns="http://www.w3.org/2000/svg">
<g clip-path="url(#clip0)">
<path d="M273.54 45.59L319.13 91.18L364.72 136.77L410.31 91.18L364.72 45.59L319.13 0L273.54 45.59Z" fill="#ED7B37"/>
<path d="M227.955 0.000856975L136.774 91.1814L227.955 182.362L319.135 91.1814L227.955 0.000856975Z" fill="#F15A22"/>
<path d="M226.87 34.1C224.85 36.12 223.97 36.62 223.64 39.77C223.3 42.93 226.41 50.32 226.93 51.43C227.46 52.55 228 53.67 228.57 54.78L228.5 54.86L228.4 54.96L228.35 55.01C227.24 54.44 226.11 53.9 225 53.37C223.88 52.85 216.49 49.74 213.34 50.07C210.19 50.41 209.68 51.29 207.66 53.31C207.66 53.31 207.9 54.53 209.09 55.71C210.28 56.9 211.53 57.17 211.53 57.17C212.4 56.3 212.87 55.86 213.5 55.77C215.86 55.43 219.22 56.78 219.22 56.78L230.86 61.45L241.44 72.04C241.44 72.04 242.9 71.45 244.01 70.35C245.12 69.24 245.62 67.87 245.62 67.87L235.04 57.28L230.37 45.64C230.37 45.64 229.02 42.28 229.36 39.92C229.45 39.29 229.89 38.82 230.76 37.95C230.76 37.95 230.48 36.7 229.3 35.51C228.08 34.35 226.87 34.1 226.87 34.1Z" fill="white"/>
<path d="M256.53 68.02C256.53 68.02 255.41 68.13 253.85 69.7C252.28 71.26 252.21 72.35 252.21 72.35L270.47 90.61C271.64 91.78 272.22 93.05 272.22 94.41C272.22 95.78 271.7 96.99 270.65 98.03C269.41 99.27 268.07 99.81 266.64 99.65C265.21 99.49 263.94 98.85 262.82 97.73L244.82 79.73C244.82 79.73 243.52 80.02 242.18 81.36C240.83 82.7 240.57 83.98 240.57 83.98L258.46 101.87C259.6 103.02 260.85 103.93 262.18 104.59C263.52 105.26 264.9 105.64 266.3 105.73C267.7 105.82 269.13 105.58 270.56 105.01C272 104.43 273.4 103.48 274.73 102.14C275.9 100.97 276.78 99.72 277.38 98.38C277.98 97.04 278.28 95.66 278.29 94.26C278.3 92.85 278 91.46 277.38 90.06C276.76 88.67 275.83 87.35 274.59 86.11L256.53 68.02Z" fill="white"/>
<path d="M260.42 108.58C260.42 108.58 258.8 110.3 257.5 110.18C256.19 110.06 255.74 109.91 254.76 109.47C253.77 109.02 247.33 106.09 247.33 106.09C248.07 104.1 248.2 102.16 247.7 100.27C247.2 98.39 246.13 96.62 244.49 94.98C243.25 93.74 241.98 92.83 240.67 92.28C239.36 91.72 238.07 91.46 236.79 91.5C235.51 91.54 234.26 91.86 233.02 92.47C231.79 93.08 230.64 93.92 229.57 94.99L221.22 103.34L247.16 129.29C247.16 129.29 248.47 128.85 249.68 127.63C250.89 126.42 251.41 125.03 251.41 125.03L240.6 114.22L243.91 110.9C243.91 110.9 252.83 115.34 254.21 115.76C255.98 116.3 257.68 116.66 259.8 115.74C262.05 114.77 264.1 112.29 264.1 112.29C264.1 112.29 263.73 111.04 262.75 110.06C261.78 109.07 260.42 108.58 260.42 108.58ZM242.19 103.01C242.18 104.31 241.62 105.53 240.5 106.64L236.78 110.37L229.36 102.95L233.13 99.18C234.29 98.01 235.49 97.41 236.69 97.37C237.89 97.33 239.11 97.92 240.33 99.14C241.58 100.41 242.2 101.7 242.19 103.01Z" fill="white"/>
<path d="M233.9 142.54C233.9 142.54 235.32 141.92 236.71 140.53C238.1 139.14 238.52 137.92 238.52 137.92C238.52 137.92 238.05 136.64 236.5 135.09C234.95 133.54 233.68 133.07 233.68 133.07C233.68 133.07 232.49 133.45 230.96 134.98C229.43 136.52 229.06 137.69 229.06 137.69C229.06 137.69 229.54 138.98 231.08 140.52C232.61 142.06 233.9 142.54 233.9 142.54Z" fill="white"/>
<path d="M210.34 61.1399C209.07 60.4899 207.73 60.1199 206.31 60.0199C204.89 59.9199 203.45 60.1299 201.99 60.6499C200.52 61.1699 199.1 62.1099 197.74 63.4799C196.27 64.9399 195.29 66.4299 194.78 67.9299C194.27 69.4299 194.08 70.8899 194.22 72.2899C194.36 73.6899 194.75 75.0199 195.41 76.2399C196.07 77.4699 196.86 78.5399 197.77 79.4599L207.57 89.2699C208.71 90.4099 209.96 91.3499 211.28 92.0799C212.61 92.8099 213.99 93.2499 215.4 93.3999C216.82 93.5499 218.26 93.3399 219.74 92.7799C221.22 92.2199 222.67 91.2299 224.08 89.8199C225.25 88.6499 226.13 87.3999 226.73 86.0499C227.33 84.7099 227.63 83.3199 227.63 81.9099C227.63 80.4999 227.32 79.0999 226.71 77.7099C226.1 76.3399 225.17 75.0199 223.93 73.7799L213.7 63.5499C212.73 62.5799 211.61 61.7799 210.34 61.1399ZM219.99 78.4999C221.14 79.6399 221.69 80.8999 221.63 82.2699C221.58 83.6399 221.07 84.7999 220.1 85.7699C218.74 87.1399 217.34 87.6899 215.92 87.4099C214.5 87.1299 213.17 86.3699 211.93 85.1199L201.95 75.2299C201.56 74.8299 201.19 74.3499 200.87 73.7699C200.55 73.1999 200.34 72.5799 200.24 71.8999C200.14 71.2299 200.2 70.5199 200.42 69.7699C200.65 69.0199 201.12 68.2899 201.84 67.5699C202.56 66.8499 203.3 66.3999 204.04 66.2299C204.79 66.0499 205.5 66.0299 206.17 66.1499C206.84 66.2699 207.45 66.4999 208 66.8199C208.55 67.1399 208.98 67.4699 209.31 67.7899L219.99 78.4999Z" fill="white"/>
<path d="M190.67 78.6799C190.67 78.6799 190.38 77.4199 189.18 76.2099C187.97 74.9999 186.79 74.7999 186.79 74.7999L171.1 90.4899C171.1 90.4899 171.38 91.5799 172.55 92.7499C173.71 93.9099 174.98 94.3699 174.98 94.3699L180.69 88.6699L202.76 110.74C202.76 110.74 204.1 110.07 205.21 108.96C206.37 107.79 207 106.5 207 106.5L184.93 84.4299L190.67 78.6799Z" fill="white"/>
<path d="M0 136.77L45.59 182.36L91.18 136.77L136.77 182.36L182.36 136.77L91.18 45.59L0 136.77Z" fill="#52C6D8"/>
<path d="M136.762 0.00420619L91.175 45.5909L136.762 91.1777L182.348 45.5909L136.762 0.00420619Z" fill="#ADE0EE"/>
<path d="M113.98 91.17L91.19 113.97L68.4 91.17L91.2 68.38L113.98 91.17Z" fill="#ADE0EE"/>
<path d="M121.57 121.57H151.96V151.96H121.57V121.57Z" fill="#ADE0EE"/>
<path d="M153.96 45.59C153.96 55.09 146.26 62.79 136.77 62.79C127.27 62.79 119.58 55.09 119.58 45.59C119.58 36.1 127.27 28.4 136.77 28.4C146.26 28.4 153.96 36.09 153.96 45.59Z" fill="#52C6D8"/>
<path d="M319.12 91.1853L273.533 136.772L319.12 182.359L364.707 136.772L319.12 91.1853Z" fill="#FAA74B"/>
<path d="M336.32 136.77C336.32 146.27 328.62 153.97 319.13 153.97C309.63 153.97 301.94 146.27 301.94 136.77C301.94 127.28 309.63 119.58 319.13 119.58C328.63 119.58 336.32 127.27 336.32 136.77Z" fill="#ED7B37"/>
<path d="M410.3 0.00664759L364.713 45.5934L410.3 91.1801L455.887 45.5934L410.3 0.00664759Z" fill="#FAA74B"/>
<path d="M381.91 91.18C381.91 100.68 374.21 108.38 364.72 108.38C355.22 108.38 347.53 100.68 347.53 91.18C347.53 81.69 355.22 73.99 364.72 73.99C374.22 73.99 381.91 81.68 381.91 91.18Z" fill="#FAA74B"/>
<path d="M336.32 45.59C336.32 55.09 328.62 62.79 319.13 62.79C309.63 62.79 301.94 55.09 301.94 45.59C301.94 36.1 309.63 28.4 319.13 28.4C328.63 28.4 336.32 36.09 336.32 45.59Z" fill="#FAA74B"/>
<path d="M62.78 136.77C62.78 146.26 55.08 153.96 45.59 153.96C36.09 153.96 28.4 146.26 28.4 136.77C28.4 127.28 36.1 119.58 45.59 119.58C55.09 119.58 62.78 127.27 62.78 136.77Z" fill="#ADE0EE"/>
<path d="M433.1 45.59L410.31 68.39L387.52 45.59L410.32 22.8L433.1 45.59Z" fill="#ED7B37"/>
</g>
<defs>
<clipPath id="clip0">
<rect width="455.9" height="182.36" fill="white"/>
</clipPath>
</defs>
</svg>
